# xmcd
#
# Track frame offsets: 
#        150
#        30722
#        53417
#        70497
#        87892
#        111666
#        132442
#        185000
#        204216
#        232522
#        247948
#
# Disc length: 3435 seconds
#
# Revision: 0
# Processed by: cddbd v1.5.2PL0 Copyright (c) Steve Scherf et al.
# Submitted via: ExactAudioCopy v0.95b4
#
DISCID=8e0d690b
DTITLE=Van Morrison - Indian Summer 2002
DYEAR=2002
DGENRE=Blues
TTITLE0=Naked In The Jungle
TTITLE1=In The Midnight
TTITLE2=Hey, Mr. DJ
TTITLE3=Meet Me In The Indian Summer
TTITLE4=Sometimes We Cry
TTITLE5=All Work And No Play
TTITLE6=All In The Game
TTITLE7=Gloria
TTITLE8=Philosopher's Stone
TTITLE9=Stop Drinking Wine
TTITLE10=Precious Time
EXTD=Stereo Soundboard\nGermany 6-6-02 (trk 1-8]\nGermany 7-19-02 (trk
EXTD=9-11]\nMade in France 2002
EXTT0=
EXTT1=
EXTT2=
EXTT3=
EXTT4=
EXTT5=
EXTT6=
EXTT7=
EXTT8=
EXTT9=
EXTT10=
PLAYORDER=
